<svg width="139" height="30" viewBox="0 0 139 30" fill="none" xmlns="http://www.w3.org/2000/svg">
<path d="M0.312 6.93012V3.64212H14.328V6.93012H9.288V22.6261H5.328V6.93012H0.312ZM21.5953 11.8261C19.4353 11.8261 18.1633 13.2181 18.1633 15.8581V22.6261H14.3953V9.06612H18.1633V11.5861C18.5713 9.69012 19.6753 8.73012 21.6913 8.73012C22.0993 8.73012 22.4833 8.77812 22.7473 8.85012L22.6993 11.8741C22.4833 11.8501 22.0513 11.8261 21.5953 11.8261ZM36.2681 16.8661H27.4121C27.5081 19.0501 28.3721 20.2261 29.9801 20.2261C31.2041 20.2261 31.9961 19.6021 32.2121 18.4981H36.0041C35.5721 21.2581 33.4121 22.9621 29.9801 22.9621C25.6841 22.9621 23.6681 20.2501 23.6681 15.8341C23.6681 11.4661 25.6841 8.73012 29.9801 8.73012C34.3001 8.73012 36.2921 11.4661 36.2921 15.8341C36.2921 16.1941 36.2921 16.5781 36.2681 16.8661ZM29.9801 11.4901C28.3721 11.4901 27.5081 12.5461 27.4361 14.5141H32.5001C32.4281 12.5461 31.5641 11.4901 29.9801 11.4901ZM50.3964 14.0341V22.6261H46.6524V14.1061C46.6524 12.4261 45.9804 11.6341 44.7324 11.6341C43.1484 11.6341 42.1164 12.8341 42.1164 14.9701V22.6261H38.3484V9.06612H42.1164V11.3221C42.5964 9.76212 43.9644 8.73012 45.9084 8.73012C48.7884 8.73012 50.3964 10.5541 50.3964 14.0341ZM61.3065 15.8341C61.3065 13.0261 60.6105 11.6581 58.7145 11.6581C56.8425 11.6581 56.1225 13.0261 56.1225 15.8341C56.1225 18.6901 56.8425 20.0581 58.7145 20.0581C60.6105 20.0581 61.3065 18.6901 61.3065 15.8341ZM61.3065 11.1541V3.64212H65.0265V22.6261H61.3065V20.5381C60.8265 22.0021 59.4585 22.9621 57.5865 22.9621C54.3945 22.9621 52.4025 20.6821 52.4025 15.8341C52.4025 11.0101 54.3945 8.73012 57.5865 8.73012C59.4585 8.73012 60.8265 9.69012 61.3065 11.1541ZM80.9698 17.1781C80.9698 20.5381 78.4978 22.9621 74.1298 22.9621C69.8098 22.9621 67.2898 20.5861 67.2898 17.2501V16.8901H71.2258V17.2981C71.2258 18.7621 72.3058 19.7701 74.1298 19.7701C75.9298 19.7701 77.0098 18.7621 77.0098 17.2981C77.0098 16.0021 76.1938 15.1141 74.4178 14.7541L72.3778 14.3461C69.1858 13.7221 67.2418 11.9941 67.2418 8.80212C67.2418 5.77812 69.5218 3.30612 73.7458 3.30612C77.9698 3.30612 80.2498 5.80212 80.2498 8.70612V8.99412H76.3138V8.70612C76.3138 7.41012 75.4018 6.52212 73.7458 6.52212C72.0658 6.52212 71.1778 7.41012 71.1778 8.70612C71.1778 10.0261 71.9938 10.6981 73.8178 11.0821L75.8578 11.4901C79.1698 12.1621 80.9698 14.0341 80.9698 17.1781ZM82.5666 15.8341C82.5666 11.4661 84.5826 8.73012 88.9026 8.73012C92.5746 8.73012 94.8066 10.6021 95.0226 13.7701H91.3026C91.1826 12.3781 90.3186 11.6341 88.9026 11.6341C87.0306 11.6341 86.3106 13.0021 86.3106 15.8341C86.3106 18.6901 87.0306 20.0581 88.9026 20.0581C90.3186 20.0581 91.1826 19.3141 91.3026 17.9221H95.0226C94.8066 21.0901 92.5746 22.9621 88.9026 22.9621C84.5826 22.9621 82.5666 20.2261 82.5666 15.8341ZM109.136 15.8341C109.136 20.2261 107.12 22.9621 102.824 22.9621C98.5044 22.9621 96.4884 20.2261 96.4884 15.8341C96.4884 11.4661 98.5044 8.73012 102.824 8.73012C107.12 8.73012 109.136 11.4661 109.136 15.8341ZM105.392 15.8341C105.392 13.0021 104.696 11.6341 102.824 11.6341C100.952 11.6341 100.232 13.0021 100.232 15.8341C100.232 18.6901 100.952 20.0581 102.824 20.0581C104.696 20.0581 105.392 18.6901 105.392 15.8341ZM114.913 15.8341C114.913 18.6901 115.609 20.0581 117.481 20.0581C119.377 20.0581 120.073 18.6901 120.073 15.8341C120.073 13.0261 119.377 11.6581 117.481 11.6581C115.609 11.6581 114.913 13.0261 114.913 15.8341ZM114.913 20.5381V28.5301H111.169V9.06612H114.913V11.1541C115.393 9.69012 116.737 8.73012 118.609 8.73012C121.825 8.73012 123.793 11.0101 123.793 15.8341C123.793 20.6821 121.825 22.9621 118.609 22.9621C116.737 22.9621 115.393 22.0021 114.913 20.5381ZM138.104 16.8661H129.248C129.344 19.0501 130.208 20.2261 131.816 20.2261C133.04 20.2261 133.832 19.6021 134.048 18.4981H137.84C137.408 21.2581 135.248 22.9621 131.816 22.9621C127.52 22.9621 125.504 20.2501 125.504 15.8341C125.504 11.4661 127.52 8.73012 131.816 8.73012C136.136 8.73012 138.128 11.4661 138.128 15.8341C138.128 16.1941 138.128 16.5781 138.104 16.8661ZM131.816 11.4901C130.208 11.4901 129.344 12.5461 129.272 14.5141H134.336C134.264 12.5461 133.4 11.4901 131.816 11.4901Z" fill="#264466"/>
</svg>
