<svg width="237" height="244" viewBox="0 0 237 244" fill="none" xmlns="http://www.w3.org/2000/svg">
<circle cx="135.026" cy="101" r="83.5" stroke="#264466" stroke-width="35"/>
<circle cx="173.5" cy="104.5" r="15.5" stroke="#264466" stroke-width="10"/>
<circle cx="127.526" cy="105.5" r="15.5" stroke="#264466" stroke-width="10"/>
<line x1="145" y1="105" x2="159" y2="105" stroke="#264466" stroke-width="10"/>
<line x1="80.4908" y1="159.464" x2="100.491" y2="139.464" stroke="#264466" stroke-width="10"/>
<line x1="54.0264" y1="105" x2="113.026" y2="105" stroke="#264466" stroke-width="10"/>
<path fill-rule="evenodd" clip-rule="evenodd" d="M170.532 124.783C163.302 137.456 149.662 146 134.026 146C110.83 146 92.0264 127.196 92.0264 104C92.0264 80.804 110.83 62 134.026 62C150.042 62 163.963 70.9639 171.048 84.1483C171.86 84.0504 172.688 84 173.526 84C176.915 84 180.112 84.8224 182.929 86.2784C175.682 66.2848 156.522 52 134.026 52C105.308 52 82.0264 75.2812 82.0264 104C82.0264 132.719 105.308 156 134.026 156C156.057 156 174.888 142.3 182.464 122.954C179.763 124.265 176.73 125 173.526 125C172.509 125 171.51 124.926 170.532 124.783Z" fill="#264466"/>
<rect x="54.0967" y="170" width="23" height="10" transform="rotate(45 54.0967 170)" fill="#264466"/>
<rect x="86.6201" y="136.479" width="23" height="15" transform="rotate(45 86.6201 136.479)" fill="#264466"/>
<path fill-rule="evenodd" clip-rule="evenodd" d="M69.6196 205.813L37.7998 173.994L16.5866 195.207L16.6271 195.247C16.3933 195.462 16.163 195.683 15.9363 195.91C7.14947 204.697 7.14947 218.943 15.9363 227.73C24.7231 236.517 38.9693 236.517 47.7561 227.73C48.0661 227.42 48.3651 227.103 48.6532 226.78L69.6196 205.813Z" fill="#264466"/>
</svg>
