<svg width="139" height="30" viewBox="0 0 139 30" fill="none" xmlns="http://www.w3.org/2000/svg">
<path d="M0.312 6.852V3.564H14.328V6.852H9.288V22.548H5.328V6.852H0.312ZM21.5953 11.748C19.4353 11.748 18.1633 13.14 18.1633 15.78V22.548H14.3953V8.988H18.1633V11.508C18.5713 9.612 19.6753 8.652 21.6913 8.652C22.0993 8.652 22.4833 8.7 22.7473 8.772L22.6993 11.796C22.4833 11.772 22.0513 11.748 21.5953 11.748ZM36.2681 16.788H27.4121C27.5081 18.972 28.3721 20.148 29.9801 20.148C31.2041 20.148 31.9961 19.524 32.2121 18.42H36.0041C35.5721 21.18 33.4121 22.884 29.9801 22.884C25.6841 22.884 23.6681 20.172 23.6681 15.756C23.6681 11.388 25.6841 8.652 29.9801 8.652C34.3001 8.652 36.2921 11.388 36.2921 15.756C36.2921 16.116 36.2921 16.5 36.2681 16.788ZM29.9801 11.412C28.3721 11.412 27.5081 12.468 27.4361 14.436H32.5001C32.4281 12.468 31.5641 11.412 29.9801 11.412ZM50.3964 13.956V22.548H46.6524V14.028C46.6524 12.348 45.9804 11.556 44.7324 11.556C43.1484 11.556 42.1164 12.756 42.1164 14.892V22.548H38.3484V8.988H42.1164V11.244C42.5964 9.684 43.9644 8.652 45.9084 8.652C48.7884 8.652 50.3964 10.476 50.3964 13.956ZM61.3065 15.756C61.3065 12.948 60.6105 11.58 58.7145 11.58C56.8425 11.58 56.1225 12.948 56.1225 15.756C56.1225 18.612 56.8425 19.98 58.7145 19.98C60.6105 19.98 61.3065 18.612 61.3065 15.756ZM61.3065 11.076V3.564H65.0265V22.548H61.3065V20.46C60.8265 21.924 59.4585 22.884 57.5865 22.884C54.3945 22.884 52.4025 20.604 52.4025 15.756C52.4025 10.932 54.3945 8.652 57.5865 8.652C59.4585 8.652 60.8265 9.612 61.3065 11.076ZM80.9698 17.1C80.9698 20.46 78.4978 22.884 74.1298 22.884C69.8098 22.884 67.2898 20.508 67.2898 17.172V16.812H71.2258V17.22C71.2258 18.684 72.3058 19.692 74.1298 19.692C75.9298 19.692 77.0098 18.684 77.0098 17.22C77.0098 15.924 76.1938 15.036 74.4178 14.676L72.3778 14.268C69.1858 13.644 67.2418 11.916 67.2418 8.724C67.2418 5.7 69.5218 3.228 73.7458 3.228C77.9698 3.228 80.2498 5.724 80.2498 8.628V8.916H76.3138V8.628C76.3138 7.332 75.4018 6.444 73.7458 6.444C72.0658 6.444 71.1778 7.332 71.1778 8.628C71.1778 9.948 71.9938 10.62 73.8178 11.004L75.8578 11.412C79.1698 12.084 80.9698 13.956 80.9698 17.1ZM82.5666 15.756C82.5666 11.388 84.5826 8.652 88.9026 8.652C92.5746 8.652 94.8066 10.524 95.0226 13.692H91.3026C91.1826 12.3 90.3186 11.556 88.9026 11.556C87.0306 11.556 86.3106 12.924 86.3106 15.756C86.3106 18.612 87.0306 19.98 88.9026 19.98C90.3186 19.98 91.1826 19.236 91.3026 17.844H95.0226C94.8066 21.012 92.5746 22.884 88.9026 22.884C84.5826 22.884 82.5666 20.148 82.5666 15.756ZM109.136 15.756C109.136 20.148 107.12 22.884 102.824 22.884C98.5044 22.884 96.4884 20.148 96.4884 15.756C96.4884 11.388 98.5044 8.652 102.824 8.652C107.12 8.652 109.136 11.388 109.136 15.756ZM105.392 15.756C105.392 12.924 104.696 11.556 102.824 11.556C100.952 11.556 100.232 12.924 100.232 15.756C100.232 18.612 100.952 19.98 102.824 19.98C104.696 19.98 105.392 18.612 105.392 15.756ZM114.913 15.756C114.913 18.612 115.609 19.98 117.481 19.98C119.377 19.98 120.073 18.612 120.073 15.756C120.073 12.948 119.377 11.58 117.481 11.58C115.609 11.58 114.913 12.948 114.913 15.756ZM114.913 20.46V28.452H111.169V8.988H114.913V11.076C115.393 9.612 116.737 8.652 118.609 8.652C121.825 8.652 123.793 10.932 123.793 15.756C123.793 20.604 121.825 22.884 118.609 22.884C116.737 22.884 115.393 21.924 114.913 20.46ZM138.104 16.788H129.248C129.344 18.972 130.208 20.148 131.816 20.148C133.04 20.148 133.832 19.524 134.048 18.42H137.84C137.408 21.18 135.248 22.884 131.816 22.884C127.52 22.884 125.504 20.172 125.504 15.756C125.504 11.388 127.52 8.652 131.816 8.652C136.136 8.652 138.128 11.388 138.128 15.756C138.128 16.116 138.128 16.5 138.104 16.788ZM131.816 11.412C130.208 11.412 129.344 12.468 129.272 14.436H134.336C134.264 12.468 133.4 11.412 131.816 11.412Z" fill="black"/>
</svg>
